<svg width="10" height="10" viewBox="0 0 10 10" fill="none" xmlns="http://www.w3.org/2000/svg">
<g clip-path="url(#clip0_6808_643)">
<path d="M9.68107 4.5625H8.95607V8.53125H1.04357V2.05H4.99982V1.25H1.04357C0.942591 1.25317 0.843268 1.27654 0.751468 1.31873C0.659668 1.36092 0.577253 1.42108 0.509089 1.49565C0.440925 1.57022 0.388394 1.6577 0.354599 1.75291C0.320804 1.84812 0.306429 1.94914 0.312323 2.05V8.53125C0.308986 8.63058 0.325258 8.72959 0.36021 8.82262C0.395162 8.91565 0.448108 9.00088 0.516021 9.07344C0.583934 9.146 0.665483 9.20446 0.756004 9.24547C0.846525 9.28649 0.944244 9.30927 1.04357 9.3125H8.95607C9.0554 9.30927 9.15312 9.28649 9.24364 9.24547C9.33416 9.20446 9.41571 9.146 9.48363 9.07344C9.55154 9.00088 9.60448 8.91565 9.63944 8.82262C9.67439 8.72959 9.69066 8.63058 9.68732 8.53125L9.68107 4.5625Z" fill="black"/>
<path d="M6.59994 1.79375L3.88744 4.5125L3.61244 4.7875L3.56244 4.8375L2.61244 6.8125C2.5487 6.9393 2.52655 7.08296 2.54913 7.22307C2.57171 7.36318 2.63788 7.49261 2.73823 7.59296C2.83858 7.69331 2.96801 7.75947 3.10812 7.78206C3.24822 7.80464 3.39189 7.78249 3.51869 7.71875L5.48119 6.7625L5.81244 6.43125L6.08119 6.1625L8.79369 3.4375L9.07494 3.1625L9.23119 3.00625C9.48613 2.75081 9.62932 2.40465 9.62932 2.04375C9.62932 1.68285 9.48613 1.33669 9.23119 1.08125C8.97695 0.828859 8.63318 0.687307 8.27494 0.687501C7.91479 0.687015 7.56897 0.828488 7.31244 1.08125L6.87494 1.5125L6.59369 1.7875L6.59994 1.79375ZM3.44369 6.875L4.18119 5.35625L4.96244 6.14375L3.44369 6.875ZM4.69369 4.775L7.13119 2.33125L7.94369 3.15L5.53119 5.625L4.69369 4.775ZM8.24369 1.45625C8.31921 1.456 8.39404 1.47079 8.46379 1.49976C8.53354 1.52873 8.59682 1.57131 8.64994 1.625C8.75795 1.73387 8.81856 1.88102 8.81856 2.03438C8.81856 2.18774 8.75795 2.33488 8.64994 2.44375L8.49369 2.59375L7.68119 1.78125L7.83744 1.625C7.89384 1.56946 7.96157 1.52674 8.03599 1.49977C8.11042 1.47281 8.18979 1.46223 8.26869 1.46875L8.24369 1.45625Z" fill="black"/>
</g>
<defs>
<clipPath id="clip0_6808_643">
<rect width="10" height="10" fill="white"/>
</clipPath>
</defs>
</svg>
