<svg width="10" height="10" viewBox="0 0 10 10" fill="none" xmlns="http://www.w3.org/2000/svg">
<g clip-path="url(#clip0_6802_414)">
<path d="M5 0.625C6.16032 0.625 7.27312 1.08594 8.09359 1.90641C8.91406 2.72688 9.375 3.83968 9.375 5C9.375 6.16032 8.91406 7.27312 8.09359 8.09359C7.27312 8.91406 6.16032 9.375 5 9.375C3.83968 9.375 2.72688 8.91406 1.90641 8.09359C1.08594 7.27312 0.625 6.16032 0.625 5C0.625 3.83968 1.08594 2.72688 1.90641 1.90641C2.72688 1.08594 3.83968 0.625 5 0.625ZM4.455 5.86312L3.48313 4.89062C3.44828 4.85578 3.40692 4.82815 3.3614 4.80929C3.31588 4.79043 3.26709 4.78073 3.21781 4.78073C3.16854 4.78073 3.11975 4.79043 3.07423 4.80929C3.0287 4.82815 2.98734 4.85578 2.9525 4.89062C2.88213 4.96099 2.8426 5.05643 2.8426 5.15594C2.8426 5.25545 2.88213 5.35088 2.9525 5.42125L4.19 6.65875C4.22474 6.69377 4.26607 6.72156 4.31161 6.74052C4.35715 6.75949 4.40599 6.76925 4.45531 6.76925C4.50464 6.76925 4.55348 6.75949 4.59902 6.74052C4.64455 6.72156 4.68588 6.69377 4.72062 6.65875L7.28312 4.09562C7.31843 4.06093 7.34652 4.01958 7.36577 3.97398C7.38502 3.92837 7.39505 3.87941 7.39528 3.8299C7.39551 3.7804 7.38593 3.73135 7.36711 3.68556C7.34829 3.63978 7.32058 3.59818 7.2856 3.56315C7.25062 3.52813 7.20905 3.50038 7.16329 3.4815C7.11753 3.46262 7.06848 3.45299 7.01898 3.45316C6.96948 3.45333 6.9205 3.46331 6.87487 3.4825C6.82924 3.5017 6.78786 3.52973 6.75313 3.565L4.455 5.86312Z" fill="#518581"/>
</g>
<defs>
<clipPath id="clip0_6802_414">
<rect width="10" height="10" fill="white"/>
</clipPath>
</defs>
</svg>
